<?xml version="1.0" encoding="UTF-8" standalone="no"?>
<!-- Created with Inkscape (http://www.inkscape.org/) -->

<svg
   xmlns:dc="http://purl.org/dc/elements/1.1/"
   xmlns:cc="http://creativecommons.org/ns#"
   xmlns:rdf="http://www.w3.org/1999/02/22-rdf-syntax-ns#"
   xmlns:svg="http://www.w3.org/2000/svg"
   xmlns="http://www.w3.org/2000/svg"
   xmlns:sodipodi="http://sodipodi.sourceforge.net/DTD/sodipodi-0.dtd"
   xmlns:inkscape="http://www.inkscape.org/namespaces/inkscape"
   width="48"
   height="48"
   viewBox="0 0 48 48.000001"
   id="svg2"
   version="1.1"
   inkscape:version="0.91 r13725"
   sodipodi:docname="checked_focus.svg"
   inkscape:export-filename="/home/david/github/QuickFlow/src/theme/bluesky/icons/checkbox/checked_focus.png"
   inkscape:export-xdpi="90"
   inkscape:export-ydpi="90">
  <defs
     id="defs4" />
  <sodipodi:namedview
     id="base"
     pagecolor="#eeffe8"
     bordercolor="#666666"
     borderopacity="1.0"
     inkscape:pageopacity="0"
     inkscape:pageshadow="2"
     inkscape:zoom="11.2"
     inkscape:cx="14.689901"
     inkscape:cy="25.001516"
     inkscape:document-units="px"
     inkscape:current-layer="layer1"
     showgrid="false"
     units="px"
     inkscape:window-width="1920"
     inkscape:window-height="1056"
     inkscape:window-x="0"
     inkscape:window-y="24"
     inkscape:window-maximized="1" />
  <metadata
     id="metadata7">
    <rdf:RDF>
      <cc:Work
         rdf:about="">
        <dc:format>image/svg+xml</dc:format>
        <dc:type
           rdf:resource="http://purl.org/dc/dcmitype/StillImage" />
        <dc:title></dc:title>
      </cc:Work>
    </rdf:RDF>
  </metadata>
  <g
     inkscape:label="Layer 1"
     inkscape:groupmode="layer"
     id="layer1"
     style="opacity:1"
     transform="translate(0,-1004.3622)">
    <path
       style="opacity:1;fill:#ffffff;fill-opacity:1;stroke:none;stroke-opacity:1"
       d="M 11.333333,1012.3622 C 9.4866667,1012.3622 8,1013.8489 8,1015.6955 l 0,25.3334 c 0,1.8466 1.4866667,3.3333 3.333333,3.3333 l 25.333334,0 c 1.846666,0 3.333333,-1.4867 3.333333,-3.3333 l 0,-25.3334 c 0,-1.8466 -1.486667,-3.3333 -3.333333,-3.3333 l -25.333334,0 z M 14,1015.0289 l 20,0 c 1.846667,0 3.333333,1.4866 3.333333,3.3333 l 0,20 c 0,1.8467 -1.486666,3.3333 -3.333333,3.3333 l -20,0 c -1.846667,0 -3.333333,-1.4866 -3.333333,-3.3333 l 0,-20 c 0,-1.8467 1.486666,-3.3333 3.333333,-3.3333 z"
       id="rect4175"
       inkscape:connector-curvature="0" />
    <rect
       style="opacity:1;fill:#ffffff;fill-opacity:1;stroke:none;stroke-opacity:1"
       id="rect4178"
       width="20"
       height="20"
       x="14"
       y="1018.3622"
       rx="3.7037039"
       ry="3.7037039" />
  </g>
</svg>
