<?xml version="1.0" encoding="UTF-8" standalone="no"?>
<!-- Created with Inkscape (http://www.inkscape.org/) -->

<svg
   xmlns:dc="http://purl.org/dc/elements/1.1/"
   xmlns:cc="http://creativecommons.org/ns#"
   xmlns:rdf="http://www.w3.org/1999/02/22-rdf-syntax-ns#"
   xmlns:svg="http://www.w3.org/2000/svg"
   xmlns="http://www.w3.org/2000/svg"
   xmlns:xlink="http://www.w3.org/1999/xlink"
   xmlns:sodipodi="http://sodipodi.sourceforge.net/DTD/sodipodi-0.dtd"
   xmlns:inkscape="http://www.inkscape.org/namespaces/inkscape"
   width="640"
   height="400"
   viewBox="0 0 639.99999 400.00001"
   id="svg5995"
   version="1.1"
   inkscape:version="0.91 r13725"
   sodipodi:docname="splash.svg"
   inkscape:export-filename="/home/david/github/QuickFlow/src/img/splash.png"
   inkscape:export-xdpi="90"
   inkscape:export-ydpi="90">
  <defs
     id="defs5997">
    <linearGradient
       inkscape:collect="always"
       id="linearGradient6599">
      <stop
         style="stop-color:#54b4eb;stop-opacity:1;"
         offset="0"
         id="stop6601" />
      <stop
         id="stop6607"
         offset="0.52473325"
         style="stop-color:#54b4eb;stop-opacity:0.41960784;" />
      <stop
         style="stop-color:#54b4eb;stop-opacity:1"
         offset="1"
         id="stop6603" />
    </linearGradient>
    <filter
       inkscape:collect="always"
       style="color-interpolation-filters:sRGB"
       id="filter6595"
       x="-0.036612745"
       width="1.0732255"
       y="-0.18632922"
       height="1.3726584">
      <feGaussianBlur
         inkscape:collect="always"
         stdDeviation="8.5140019"
         id="feGaussianBlur6597" />
    </filter>
    <linearGradient
       inkscape:collect="always"
       xlink:href="#linearGradient6599"
       id="linearGradient6605"
       x1="323.95624"
       y1="574.57623"
       x2="326.9418"
       y2="1049.4154"
       gradientUnits="userSpaceOnUse"
       gradientTransform="matrix(0.99574456,0,0,0.82765949,-0.13189213,181.24437)" />
  </defs>
  <sodipodi:namedview
     id="base"
     pagecolor="#ffffff"
     bordercolor="#666666"
     borderopacity="1.0"
     inkscape:pageopacity="0.0"
     inkscape:pageshadow="2"
     inkscape:zoom="1.78125"
     inkscape:cx="435.44236"
     inkscape:cy="198.61723"
     inkscape:document-units="px"
     inkscape:current-layer="layer1"
     showgrid="false"
     inkscape:window-width="1920"
     inkscape:window-height="1056"
     inkscape:window-x="0"
     inkscape:window-y="24"
     inkscape:window-maximized="1"
     units="px"
     inkscape:showpageshadow="false" />
  <metadata
     id="metadata6000">
    <rdf:RDF>
      <cc:Work
         rdf:about="">
        <dc:format>image/svg+xml</dc:format>
        <dc:type
           rdf:resource="http://purl.org/dc/dcmitype/StillImage" />
        <dc:title></dc:title>
      </cc:Work>
    </rdf:RDF>
  </metadata>
  <g
     inkscape:label="Layer 1"
     inkscape:groupmode="layer"
     id="layer1"
     transform="translate(0,-652.36216)">
    <rect
       style="opacity:1;fill:url(#linearGradient6605);fill-opacity:1;stroke:#ffffff;stroke-width:2.72346067;stroke-miterlimit:4;stroke-dasharray:none;stroke-opacity:1"
       id="rect6543"
       width="637.27655"
       height="397.27655"
       x="1.3617249"
       y="653.72388" />
    <path
       sodipodi:type="inkscape:offset"
       inkscape:radius="6.1754365"
       inkscape:original="M 295.73047 763.70508 L 295.73047 848.98047 L 306.41797 848.98047 L 306.41797 824.56836 L 310.46875 821.19336 L 336.90625 850.66797 L 347.93164 847.96875 L 317.89258 815.11914 L 343.76758 792.28125 L 332.18164 790.25586 L 306.41797 812.30664 L 306.41797 763.70508 L 295.73047 763.70508 z M 413.72461 763.70508 L 413.72461 819.39258 C 413.72461 839.11758 422.12383 849.43008 438.92383 850.33008 L 440.16211 840.65625 C 434.08711 840.28125 429.92383 838.25508 427.67383 834.58008 C 425.49883 830.83008 424.41211 824.98125 424.41211 817.03125 L 424.41211 763.70508 L 413.72461 763.70508 z M 214.66016 766.40625 C 212.41016 766.40625 210.49883 767.19258 208.92383 768.76758 C 207.34883 770.34258 206.56055 772.25586 206.56055 774.50586 C 206.56055 776.75586 207.34883 778.66914 208.92383 780.24414 C 210.49883 781.81914 212.41016 782.60547 214.66016 782.60547 C 216.91016 782.60547 218.82344 781.81914 220.39844 780.24414 C 222.04844 778.66914 222.87305 776.75586 222.87305 774.50586 C 222.87305 772.25586 222.04844 770.34258 220.39844 768.76758 C 218.82344 767.19258 216.91016 766.40625 214.66016 766.40625 z M 86.613281 766.85547 C 75.138281 766.85547 65.686719 770.90586 58.261719 779.00586 C 50.836719 787.10586 47.125 797.08164 47.125 808.93164 C 47.125 820.70664 50.836719 830.60586 58.261719 838.63086 C 65.686719 846.65586 75.138281 850.66797 86.613281 850.66797 C 89.013281 850.89297 90.475 851.11875 91 851.34375 C 104.425 855.69375 115.18711 858.91758 123.28711 861.01758 L 126.66211 851.90625 C 118.78711 850.55625 110.61172 848.83047 102.13672 846.73047 L 102.13672 846.05664 C 109.33672 843.58164 115.11289 839.08164 119.46289 832.55664 C 123.81289 825.95664 125.98828 818.08164 125.98828 808.93164 C 125.98828 797.08164 122.27461 787.10586 114.84961 779.00586 C 107.49961 770.90586 98.088281 766.85547 86.613281 766.85547 z M 353.29883 768.43164 L 353.29883 848.98047 L 363.98633 848.98047 L 363.98633 811.96875 L 400.54883 811.96875 L 400.54883 802.96875 L 363.98633 802.96875 L 363.98633 777.54297 L 402.91211 777.54297 L 402.91211 768.43164 L 353.29883 768.43164 z M 86.613281 776.08008 C 95.163281 776.08008 102.10078 779.23125 107.42578 785.53125 C 112.82578 791.83125 115.52539 799.55508 115.52539 808.70508 C 115.52539 817.85508 112.82578 825.58086 107.42578 831.88086 C 102.10078 838.18086 95.163281 841.33008 86.613281 841.33008 C 77.988281 841.33008 70.974219 838.18086 65.574219 831.88086 C 60.249219 825.58086 57.587891 817.85508 57.587891 808.70508 C 57.587891 799.55508 60.249219 791.83125 65.574219 785.53125 C 70.974219 779.23125 77.988281 776.08008 86.613281 776.08008 z M 263.27539 789.24414 C 254.27539 789.24414 246.96289 792.09297 241.33789 797.79297 C 235.78789 803.41797 233.01367 810.76875 233.01367 819.84375 C 233.01367 828.91875 235.78789 836.30586 241.33789 842.00586 C 246.96289 847.70586 254.27539 850.55664 263.27539 850.55664 C 270.92539 850.55664 277.52617 848.83086 283.07617 845.38086 L 279.36328 836.60547 C 274.03828 839.90547 268.56445 841.55664 262.93945 841.55664 C 257.08945 841.55664 252.43828 839.53047 248.98828 835.48047 C 245.53828 831.35547 243.81445 826.14375 243.81445 819.84375 C 243.81445 813.61875 245.53828 808.48164 248.98828 804.43164 C 252.43828 800.30664 257.08945 798.24414 262.93945 798.24414 C 268.63945 798.24414 274.11328 799.85508 279.36328 803.08008 L 283.07617 794.30664 C 277.52617 790.93164 270.92539 789.24414 263.27539 789.24414 z M 476.19727 789.24414 C 467.57227 789.24414 460.33438 792.20586 454.48438 798.13086 C 448.63437 804.05586 445.70898 811.29375 445.70898 819.84375 C 445.70898 828.46875 448.63437 835.70664 454.48438 841.55664 C 460.33437 847.40664 467.57227 850.33008 476.19727 850.33008 C 484.82227 850.33008 492.0582 847.40664 497.9082 841.55664 C 503.7582 835.70664 506.68359 828.46875 506.68359 819.84375 C 506.68359 811.29375 503.7582 804.05586 497.9082 798.13086 C 492.0582 792.20586 484.82227 789.24414 476.19727 789.24414 z M 138.8457 791.49414 L 138.8457 822.88086 C 138.8457 841.33086 146.79531 850.55664 162.69531 850.55664 C 169.29531 850.55664 176.00898 847.21797 182.83398 840.54297 C 183.73398 844.36797 184.74609 847.63008 185.87109 850.33008 L 196.2207 848.30664 C 193.8207 842.15664 192.65938 837.24336 192.73438 833.56836 L 192.73438 791.49414 L 182.04688 791.49414 L 182.04688 825.46875 C 182.04688 829.44375 180.09531 833.04258 176.19531 836.26758 C 172.29531 839.41758 168.24688 840.99414 164.04688 840.99414 C 154.37188 840.99414 149.5332 834.61914 149.5332 821.86914 L 149.5332 791.49414 L 138.8457 791.49414 z M 209.59766 791.49414 L 209.59766 848.98047 L 220.28516 848.98047 L 220.28516 791.49414 L 209.59766 791.49414 z M 510.30078 791.49414 L 524.69922 848.98047 L 533.69922 848.98047 L 551.58789 802.74414 L 569.47461 848.98047 L 578.47461 848.98047 L 592.875 791.49414 L 581.84961 791.49414 L 573.30078 834.91797 L 555.97461 791.49414 L 547.19922 791.49414 L 529.875 834.91797 L 521.32422 791.49414 L 510.30078 791.49414 z M 476.19727 798.35547 C 482.04727 798.35547 486.80937 800.41797 490.48438 804.54297 C 494.23438 808.66797 496.10938 813.76875 496.10938 819.84375 C 496.10938 825.91875 494.23438 831.01758 490.48438 835.14258 C 486.80937 839.26758 482.04727 841.33008 476.19727 841.33008 C 470.34727 841.33008 465.54688 839.26758 461.79688 835.14258 C 458.04688 831.01758 456.17188 825.91875 456.17188 819.84375 C 456.17188 813.76875 458.04688 808.66797 461.79688 804.54297 C 465.54687 800.41797 470.34727 798.35547 476.19727 798.35547 z "
       style="font-style:normal;font-variant:normal;font-weight:normal;font-stretch:normal;font-size:30px;line-height:125%;font-family:sans-serif;-inkscape-font-specification:Normal;letter-spacing:0px;word-spacing:0px;fill:#ffffff;fill-opacity:0.62264153;stroke:none;stroke-width:1px;stroke-linecap:butt;stroke-linejoin:miter;stroke-opacity:1;filter:url(#filter6595)"
       id="path6553"
       d="m 295.73047,757.5293 a 6.176054,6.176054 0 0 0 -6.17578,6.17578 l 0,85.27539 a 6.176054,6.176054 0 0 0 6.17578,6.17578 l 10.6875,0 a 6.176054,6.176054 0 0 0 6.17578,-6.17578 l 0,-16.16797 19.71484,21.97852 a 6.176054,6.176054 0 0 0 6.06641,1.875 l 11.02539,-2.69922 a 6.176054,6.176054 0 0 0 0.18945,-0.0566 6.176054,6.176054 0 0 0 3.70899,1.24609 l 10.6875,0 a 6.176054,6.176054 0 0 0 6.17578,-6.17578 l 0,-30.83594 30.38672,0 a 6.176054,6.176054 0 0 0 6.17578,-6.17578 l 0,-9 a 6.176054,6.176054 0 0 0 -6.17578,-6.17578 l -30.38672,0 0,-13.07422 32.75,0 a 6.176054,6.176054 0 0 0 4.63672,-2.10937 l 0,37.7832 c 0,10.73903 2.27012,19.77662 7.6875,26.42773 5.41738,6.65111 13.75416,10.16132 23.35742,10.67578 a 6.176054,6.176054 0 0 0 6.45508,-5.38281 l 1.23828,-9.67383 a 6.176054,6.176054 0 0 0 0.0137,-0.17578 c 1.15653,1.62439 2.37245,3.21621 3.81641,4.66016 6.92349,6.9235 16.05963,10.58203 26.08008,10.58203 10.02044,0 19.15511,-3.65902 26.07812,-10.58203 5.6682,-5.6682 9.01591,-12.85934 10.0918,-20.76563 l 6.34179,25.32227 a 6.176054,6.176054 0 0 0 5.99024,4.67578 l 9,0 a 6.176054,6.176054 0 0 0 5.75976,-3.94727 l 12.12891,-31.34765 12.12695,31.34765 a 6.176054,6.176054 0 0 0 5.75977,3.94727 l 9,0 a 6.176054,6.176054 0 0 0 5.99023,-4.67578 l 14.40039,-57.48633 a 6.176054,6.176054 0 0 0 -5.99023,-7.67578 l -11.02539,0 a 6.176054,6.176054 0 0 0 -6.05859,4.98242 l -4.50782,22.89649 -9.57226,-23.99219 a 6.176054,6.176054 0 0 0 -5.73633,-3.88672 l -8.77539,0 a 6.176054,6.176054 0 0 0 -5.73633,3.88672 l -9.57227,23.99219 -4.50781,-22.89649 a 6.176054,6.176054 0 0 0 -6.05859,-4.98242 l -11.02344,0 a 6.176054,6.176054 0 0 0 -5.99023,7.67578 l 1.18554,4.73438 c -1.00714,-1.34715 -1.98555,-2.71226 -3.19336,-3.93555 -6.91587,-7.00454 -16.06675,-10.72461 -26.10546,-10.72461 -10.03872,0 -19.19107,3.71958 -26.10743,10.72461 -6.89343,6.9818 -10.55664,16.09216 -10.55664,26.05078 0,5.4166 1.1563,10.53127 3.23242,15.2207 a 6.176054,6.176054 0 0 0 -2.22265,-0.57226 c -4.81013,-0.29692 -6.53414,-1.46233 -7.54688,-3.06836 -1.21758,-2.1314 -2.4082,-7.04676 -2.4082,-14.39258 l 0,-53.32617 a 6.176054,6.176054 0 0 0 -6.17578,-6.17578 l -10.6875,0 a 6.176054,6.176054 0 0 0 -6.17578,6.17578 l 0,0.65625 a 6.176054,6.176054 0 0 0 -4.63672,-2.10547 l -49.61328,0 a 6.176054,6.176054 0 0 0 -6.17578,6.17578 l 0,18.67383 a 6.176054,6.176054 0 0 0 -2.29297,-0.9082 l -11.58594,-2.02539 a 6.176054,6.176054 0 0 0 -5.07812,1.39257 l -15.57227,13.32813 0,-35.1875 a 6.176054,6.176054 0 0 0 -6.17578,-6.17578 l -10.6875,0 z m -81.07031,2.70117 c -3.6888,0 -7.48883,1.55523 -10.10352,4.16992 -2.61469,2.61469 -4.17187,6.41311 -4.17187,10.10547 0,3.69236 1.55718,7.49078 4.17187,10.10547 0.58102,0.58102 1.24001,1.08763 1.92383,1.55859 a 6.176054,6.176054 0 0 0 -3.05859,5.32422 l 0,57.48633 a 6.176054,6.176054 0 0 0 6.17578,6.17578 l 10.6875,0 a 6.176054,6.176054 0 0 0 6.17578,-6.17578 l 0,-57.48633 a 6.176054,6.176054 0 0 0 -3.38867,-5.50976 c 0.5714,-0.41151 1.13625,-0.83357 1.63281,-1.32422 2.68538,-2.58971 4.34375,-6.41755 4.34375,-10.1543 0,-3.73675 -1.65837,-7.5646 -4.34375,-10.1543 -2.61457,-2.58348 -6.38187,-4.12109 -10.04492,-4.12109 z m -128.046879,0.44922 c -12.928184,0 -24.408291,4.88397 -32.904297,14.15234 -8.438904,9.20608 -12.759765,20.96008 -12.759765,34.09961 0,13.07275 4.331751,24.7624 12.779297,33.89258 8.502367,9.18943 19.970315,14.01953 32.884765,14.01953 l -0.576172,-0.0273 c 1.124877,0.10545 1.996619,0.21055 2.53125,0.29297 0.534632,0.0824 0.955455,0.32047 -0.002,-0.0898 a 6.176054,6.176054 0 0 0 0.529297,0.19922 c 13.494527,4.37253 24.342657,7.62551 32.642577,9.77734 a 6.176054,6.176054 0 0 0 7.33984,-3.83398 l 3.375,-9.11133 a 6.176054,6.176054 0 0 0 -4.74804,-8.23047 c -3.18119,-0.54534 -6.645,-1.42568 -9.9336,-2.09765 2.52875,-2.28233 4.87232,-4.8036 6.83008,-7.74024 a 6.176054,6.176054 0 0 0 0.0176,-0.0273 c 5.07153,-7.69473 7.54492,-16.89464 7.54492,-27.02344 0,-13.13423 -4.321,-24.88213 -12.75195,-34.08594 -8.42346,-9.27659 -19.875999,-14.16601 -32.798829,-14.16601 z m 0,21.57617 c 7.032663,0 11.822355,2.20593 16.095699,7.26172 a 6.176054,6.176054 0 0 0 0.0273,0.0332 c 4.43876,5.17856 6.61328,11.21896 6.61328,19.1543 0,7.93533 -2.17493,13.97817 -6.61328,19.15625 a 6.176054,6.176054 0 0 0 -0.0273,0.0332 c -4.272939,5.05531 -9.062097,7.25977 -16.095699,7.25977 -7.115525,0 -11.998563,-2.22481 -16.33789,-7.28125 -4.361294,-5.16922 -6.511719,-11.22603 -6.511719,-19.16797 0,-7.94194 2.150023,-13.99633 6.511719,-19.16602 4.339737,-5.05692 9.223294,-7.2832 16.33789,-7.2832 z m 176.662109,0.8125 c -10.30317,0 -19.55207,3.51438 -26.33398,10.38672 -6.71655,6.80731 -10.10352,16.05512 -10.10352,26.38867 0,10.33355 3.38332,19.59696 10.07617,26.4707 a 6.176054,6.176054 0 0 0 0.0273,0.0293 c 6.78141,6.87183 16.02992,10.38867 26.33398,10.38867 8.57875,0 16.43024,-1.98588 23.06055,-6.10742 a 6.176054,6.176054 0 0 0 2.42773,-7.65039 l -3.71289,-8.77539 a 6.176054,6.176054 0 0 0 -8.9414,-2.84375 c -4.49831,2.78768 -8.75342,4.02539 -13.16993,4.02539 -4.41379,0 -6.90448,-1.16405 -9.23242,-3.88867 -2.44348,-2.93316 -3.7168,-6.48971 -3.7168,-11.64844 0,-5.08493 1.26236,-8.54753 3.69922,-11.4082 a 6.176054,6.176054 0 0 0 0.0352,-0.043 c 2.34754,-2.80684 4.81633,-3.97266 9.21484,-3.97266 4.53646,0 8.79113,1.21885 13.19141,3.92188 a 6.176054,6.176054 0 0 0 8.91992,-2.85547 l 3.71289,-8.77344 a 6.176054,6.176054 0 0 0 -2.47851,-7.68359 c -6.62647,-4.02961 -14.45162,-5.96094 -23.00977,-5.96094 z m -124.42969,2.25 a 6.176054,6.176054 0 0 0 -6.17578,6.17578 l 0,31.38672 c 0,10.11194 2.15703,18.63216 7.46094,24.78711 5.30391,6.15494 13.42005,9.06445 22.56445,9.06445 5.88395,0 11.54006,-2.15835 16.93555,-5.75586 0.19848,0.52461 0.33022,1.2273 0.53906,1.72852 a 6.176054,6.176054 0 0 0 6.88672,3.68554 l 10.34961,-2.02343 a 6.176054,6.176054 0 0 0 4.56641,-8.30469 c -2.24032,-5.74082 -3.11063,-10.10462 -3.06446,-12.36719 a 6.176054,6.176054 0 0 0 0.002,-0.12695 l 0,-42.07422 a 6.176054,6.176054 0 0 0 -6.17578,-6.17578 l -10.6875,0 a 6.176054,6.176054 0 0 0 -6.17579,6.17578 l 0,33.97461 c 0,1.94593 -0.67674,3.59763 -3.58789,6.01367 -3.04351,2.4496 -5.59147,3.33594 -8.23632,3.33594 -3.48114,0 -4.74426,-0.72956 -5.96485,-2.33789 -1.22059,-1.60833 -2.37305,-5.01753 -2.37305,-10.61133 l 0,-30.375 a 6.176054,6.176054 0 0 0 -6.17578,-6.17578 l -10.6875,0 z m 208.27735,12.23828 0,40.37695 -20.43164,-22.34375 20.43164,-18.0332 z m 129.07422,6.97461 c 4.3985,0 7.08325,1.20917 9.67578,4.11914 a 6.176054,6.176054 0 0 0 0.041,0.0469 c 2.73473,3.00819 4.01953,6.34215 4.01953,11.14648 0,4.80433 -1.28415,8.13562 -4.01953,11.14453 a 6.176054,6.176054 0 0 0 -0.041,0.0469 c -2.59253,2.90997 -5.27728,4.11914 -9.67578,4.11914 -4.39851,0 -7.15539,-1.22386 -9.83008,-4.16602 -2.73538,-3.00891 -4.01953,-6.3402 -4.01953,-11.14453 0,-4.80433 1.2848,-8.13829 4.01953,-11.14648 2.67467,-2.94215 5.43157,-4.16602 9.83008,-4.16602 z"
       transform="translate(3.4588963e-4,40.00087)" />
    <text
       xml:space="preserve"
       style="font-style:normal;font-variant:normal;font-weight:normal;font-stretch:normal;font-size:30px;line-height:125%;font-family:sans-serif;-inkscape-font-specification:Normal;letter-spacing:0px;word-spacing:0px;fill:#ffffff;fill-opacity:1;stroke:#7bffff;stroke-width:1;stroke-linecap:butt;stroke-linejoin:miter;stroke-miterlimit:4;stroke-dasharray:none;stroke-opacity:0.3899371"
       x="42.737598"
       y="888.9809"
       id="text6545"
       sodipodi:linespacing="125%"><tspan
         sodipodi:role="line"
         id="tspan6547"
         x="42.737598"
         y="888.9809"
         style="font-style:normal;font-variant:normal;font-weight:bold;font-stretch:normal;font-size:112.5px;line-height:125%;font-family:Laksaman;-inkscape-font-specification:'Laksaman, Bold';text-align:start;writing-mode:lr-tb;text-anchor:start;fill:#ffffff;fill-opacity:1;stroke:#7bffff;stroke-width:1;stroke-miterlimit:4;stroke-dasharray:none;stroke-opacity:0.3899371">QuickFlow</tspan></text>
    <text
       xml:space="preserve"
       style="font-style:normal;font-weight:normal;font-size:30px;line-height:125%;font-family:sans-serif;letter-spacing:0px;word-spacing:0px;fill:#000000;fill-opacity:1;stroke:none;stroke-width:1px;stroke-linecap:butt;stroke-linejoin:miter;stroke-opacity:1"
       x="10.666666"
       y="1040.0114"
       id="text6609"
       sodipodi:linespacing="125%"><tspan
         sodipodi:role="line"
         id="tspan6611"
         x="10.666666"
         y="1040.0114"
         style="font-style:normal;font-variant:normal;font-weight:normal;font-stretch:normal;font-size:15px;line-height:125%;font-family:Amiri;-inkscape-font-specification:'Amiri, Normal';text-align:start;writing-mode:lr-tb;text-anchor:start">Copyright: David Krepsky 2015-2016</tspan></text>
    <text
       xml:space="preserve"
       style="font-style:normal;font-weight:normal;font-size:30px;line-height:125%;font-family:sans-serif;letter-spacing:0px;word-spacing:0px;fill:#000000;fill-opacity:1;stroke:none;stroke-width:1px;stroke-linecap:butt;stroke-linejoin:miter;stroke-opacity:1"
       x="545.6842"
       y="1039.45"
       id="text6613"
       sodipodi:linespacing="125%"><tspan
         sodipodi:role="line"
         id="tspan6615"
         x="545.6842"
         y="1039.45"
         style="font-style:normal;font-variant:normal;font-weight:normal;font-stretch:normal;font-size:15px;line-height:125%;font-family:Amiri;-inkscape-font-specification:'Amiri, Normal';text-align:start;writing-mode:lr-tb;text-anchor:start">version: 1.0.0</tspan></text>
  </g>
</svg>
