<?xml version="1.0" encoding="UTF-8" standalone="no"?>
<!-- Created with Inkscape (http://www.inkscape.org/) -->

<svg
   xmlns:dc="http://purl.org/dc/elements/1.1/"
   xmlns:cc="http://creativecommons.org/ns#"
   xmlns:rdf="http://www.w3.org/1999/02/22-rdf-syntax-ns#"
   xmlns:svg="http://www.w3.org/2000/svg"
   xmlns="http://www.w3.org/2000/svg"
   xmlns:sodipodi="http://sodipodi.sourceforge.net/DTD/sodipodi-0.dtd"
   xmlns:inkscape="http://www.inkscape.org/namespaces/inkscape"
   width="48"
   height="48"
   viewBox="0 0 48 48.000001"
   id="svg2"
   version="1.1"
   inkscape:version="0.91 r13725"
   sodipodi:docname="checked.svg"
   inkscape:export-filename="/home/david/github/QuickFlow/src/theme/bluesky/icons/checkbox/checked.png"
   inkscape:export-xdpi="90"
   inkscape:export-ydpi="90">
  <defs
     id="defs4" />
  <sodipodi:namedview
     id="base"
     pagecolor="#eeffe8"
     bordercolor="#666666"
     borderopacity="1.0"
     inkscape:pageopacity="0"
     inkscape:pageshadow="2"
     inkscape:zoom="11.2"
     inkscape:cx="-0.39938471"
     inkscape:cy="25.001516"
     inkscape:document-units="px"
     inkscape:current-layer="layer1"
     showgrid="false"
     units="px"
     inkscape:window-width="1920"
     inkscape:window-height="1056"
     inkscape:window-x="0"
     inkscape:window-y="24"
     inkscape:window-maximized="1" />
  <metadata
     id="metadata7">
    <rdf:RDF>
      <cc:Work
         rdf:about="">
        <dc:format>image/svg+xml</dc:format>
        <dc:type
           rdf:resource="http://purl.org/dc/dcmitype/StillImage" />
        <dc:title />
      </cc:Work>
    </rdf:RDF>
  </metadata>
  <g
     inkscape:label="Layer 1"
     inkscape:groupmode="layer"
     id="layer1"
     style="opacity:1"
     transform="translate(0,-1004.3622)">
    <path
       style="opacity:1;fill:#54b4eb;fill-opacity:0.84313725;stroke:none;stroke-opacity:1"
       d="M 24 8 A 16 16 0 0 0 8 24 A 16 16 0 0 0 24 40 A 16 16 0 0 0 40 24 A 16 16 0 0 0 24 8 z M 24 12 A 12 12 0 0 1 36 24 A 12 12 0 0 1 24 36 A 12 12 0 0 1 12 24 A 12 12 0 0 1 24 12 z "
       transform="translate(0,1004.3622)"
       id="path4137" />
    <circle
       style="opacity:1;fill:#54b4eb;fill-opacity:0.84313725;stroke:none;stroke-opacity:1"
       id="path4687"
       cx="24"
       cy="1028.3622"
       r="9" />
  </g>
</svg>
